# xmcd
#
# Track frame offsets: 
#        150
#        33885
#        49398
#        80465
#        121819
#        144289
#        178459
#        227980
#        251846
#
# Disc length: 3960 seconds
#
# Revision: 0
# Processed by: cddbd v1.5.2PL0 Copyright (c) Steve Scherf et al.
# Submitted via: ExactAudioCopyFreeDBPlugin 1.0
#
DISCID=7b0f7609
DTITLE=Dutch Mason and Johnny Tornado - Goodtimes, Live In Chilliwack At
DTITLE=Goodtimes Cabaret
DYEAR=1999
DGENRE=Blues
TTITLE0=The Moon Is Full
TTITLE1=One Way Out
TTITLE2=Mojo
TTITLE3=Move Up To The Country
TTITLE4=Goin To New Orleans
TTITLE5=Since You Been Gone
TTITLE6=Who Do You Love
TTITLE7=Requiem
TTITLE8=I'm A Man
EXTD=
EXTT0=
EXTT1=
EXTT2=
EXTT3=
EXTT4=
EXTT5=
EXTT6=
EXTT7=
EXTT8=
PLAYORDER=
